<svg version="1.2" baseProfile="tiny" id="EdgeSVG_WW5rM" x="0px" y="0px" width="24.51px" height="24.945px" viewBox="0 0 24.51 24.945" xmlns:xlink="http://www.w3.org/1999/xlink" xmlns="http://www.w3.org/2000/svg">
  <linearGradient id="SVGID_2_" gradientUnits="userSpaceOnUse" x1="12.2554" y1="12.2529" x2="12.2554" y2="2.6401">
    <stop offset="0" style="stop-color:#FFFFFF;stop-opacity:0.5"/>
    <stop offset="1" style="stop-color:#FFFFFF;stop-opacity:0"/>
  </linearGradient>
  <path fill="url(#SVGID_2_)" d="M22.775,12.711c0-0.001,0.002-0.001,0.002-0.002c0.015-0.078,0.032-0.154,0.032-0.235&#xD;&#xA;&#x9;&#x9;c0-0.472-0.261-0.897-0.681-1.112L3.516,1.837C3.341,1.748,3.144,1.7,2.948,1.7c-0.23,0-0.455,0.063-0.651,0.184&#xD;&#xA;&#x9;&#x9;C1.929,2.109,1.7,2.516,1.7,2.948v7.073c2.013,0.831,8.036,3.145,13.173,3.382C21.145,13.693,22.807,13.148,22.775,12.711z"/>
</svg>