<svg width="16" height="16" viewBox="0 0 16 16" fill="none" xmlns="http://www.w3.org/2000/svg">
<path d="M7.574 8.68197C7.508 8.68297 7.449 8.65797 7.406 8.61497C7.366 8.57497 7.341 8.52097 7.339 8.45997L7.068 3.16997C7.066 3.10597 7.09 3.04497 7.136 2.99897L8.005 2.14397C8.07 2.08097 8.167 2.06097 8.251 2.09497C8.335 2.12997 8.392 2.20997 8.395 2.30197L8.634 6.29897L14.865 0.0679707C14.954 -0.0210293 15.1 -0.0210293 15.19 0.0679707L15.881 0.758971C15.97 0.847971 15.97 0.993971 15.881 1.08397L9.583 7.37997L13.646 7.43297C13.737 7.43597 13.816 7.49197 13.852 7.57597C13.886 7.65997 13.868 7.75597 13.805 7.82197L12.918 8.75697C12.872 8.80397 12.81 8.82997 12.745 8.82697L7.574 8.68197Z" fill="#6A6A6A"/>
<path d="M1.462 16H7.901C8.679 16 9.311 15.367 9.311 14.59V10.285L8.384 10.414V14.591C8.384 14.857 8.167 15.074 7.901 15.074H1.462C1.196 15.074 0.979002 14.858 0.979002 14.591V8.14999C0.979002 7.88399 1.196 7.66699 1.462 7.66699H5.088L5.271 6.73999H1.462C0.685002 6.73999 0.052002 7.37299 0.052002 8.14999V14.59C0.052002 15.367 0.685002 16 1.462 16Z" fill="#6A6A6A"/>
</svg>
