<?xml version="1.0" standalone="no"?>
<!DOCTYPE svg PUBLIC "-//W3C//DTD SVG 20010904//EN"
 "http://www.w3.org/TR/2001/REC-SVG-20010904/DTD/svg10.dtd">
<svg version="1.0" xmlns="http://www.w3.org/2000/svg"
 width="296.000000pt" height="362.000000pt" viewBox="0 0 296.000000 362.000000"
 preserveAspectRatio="xMidYMid meet">

<g transform="translate(0.000000,362.000000) scale(0.100000,-0.100000)"
fill="#000000" stroke="none">
<path d="M10 1870 l0 -1740 1430 0 1430 0 0 1718 c0 944 -3 1727 -6 1740 l-6
22 -1424 0 -1424 0 0 -1740z m2816 1698 c-14 -20 -16 -198 -16 -1705 l0 -1683
-1373 0 c-1055 0 -1376 -3 -1385 -12 -9 -9 -12 370 -12 1705 l0 1717 1401 0
1400 0 -15 -22z"/>
</g>
</svg>
